<mxfile host="app.diagrams.net" modified="2024-04-23T10:56:38.434Z" agent="Mozilla/5.0 (Windows NT 10.0; Win64; x64) AppleWebKit/537.36 (KHTML, like Gecko) Chrome/116.0.0.0 Safari/537.36" version="24.2.8" etag="lqYXRR-Yw-z7xqk0l3WV" type="github">
  <diagram name="第 1 页" id="MWLq9EllfnVPG2siIVnz">
    <mxGraphModel>
      <root>
        <mxCell id="0" />
        <mxCell id="1" parent="0" />
      </root>
    </mxGraphModel>
  </diagram>
</mxfile>
